<mxfile host="app.diagrams.net" modified="2021-12-20T03:59:44.441Z" agent="5.0 (Windows NT 10.0; Win64; x64) AppleWebKit/537.36 (KHTML, like Gecko) Chrome/91.0.4472.164 Safari/537.36" etag="r7SB2A7CUrVunH79_blH" version="15.2.9" type="github">
  <diagram id="yk-z7Qh5ulJtjqHZbRio" name="Page-1">
    <mxGraphModel dx="346" dy="182" grid="1" gridSize="10" guides="1" tooltips="1" connect="1" arrows="1" fold="1" page="1" pageScale="1" pageWidth="827" pageHeight="1169" math="0" shadow="0">
      <root>
        <mxCell id="0" />
        <mxCell id="1" parent="0" />
        <mxCell id="48O9rbKC2fMTxeMT6MjP-2" value="" style="rounded=0;whiteSpace=wrap;html=1;" vertex="1" parent="1">
          <mxGeometry x="80" y="200" width="320" height="360" as="geometry" />
        </mxCell>
        <mxCell id="48O9rbKC2fMTxeMT6MjP-1" value="" style="rounded=0;whiteSpace=wrap;html=1;dashed=1;" vertex="1" parent="1">
          <mxGeometry x="80" y="230" width="320" height="190" as="geometry" />
        </mxCell>
        <mxCell id="48O9rbKC2fMTxeMT6MjP-3" value="Connection" style="text;html=1;strokeColor=default;fillColor=none;align=center;verticalAlign=middle;whiteSpace=wrap;rounded=0;" vertex="1" parent="1">
          <mxGeometry x="80" y="180" width="70" height="20" as="geometry" />
        </mxCell>
        <mxCell id="48O9rbKC2fMTxeMT6MjP-4" value="&lt;font style=&quot;font-size: 9px;&quot;&gt;Data Stream 1&lt;/font&gt;" style="text;html=1;strokeColor=default;fillColor=none;align=center;verticalAlign=middle;whiteSpace=wrap;rounded=0;fontSize=9;dashed=1;fontStyle=0" vertex="1" parent="1">
          <mxGeometry x="80" y="210" width="80" height="20" as="geometry" />
        </mxCell>
        <mxCell id="48O9rbKC2fMTxeMT6MjP-7" value="" style="shape=singleArrow;whiteSpace=wrap;html=1;arrowWidth=0.2888895670572917;arrowSize=0.028749974568684954;shadow=0;sketch=0;fillColor=#d5e8d4;strokeColor=#82b366;" vertex="1" parent="1">
          <mxGeometry x="80" y="277.5" width="320" height="15" as="geometry" />
        </mxCell>
        <mxCell id="48O9rbKC2fMTxeMT6MjP-5" value="" style="rounded=0;whiteSpace=wrap;html=1;strokeColor=default;" vertex="1" parent="1">
          <mxGeometry x="145" y="250" width="190" height="70" as="geometry" />
        </mxCell>
        <mxCell id="48O9rbKC2fMTxeMT6MjP-8" value="" style="shape=singleArrow;whiteSpace=wrap;html=1;arrowWidth=0.2888895670572917;arrowSize=0.028749974568684954;shadow=0;sketch=0;fillColor=#dae8fc;strokeColor=#6c8ebf;flipH=1;" vertex="1" parent="1">
          <mxGeometry x="80" y="362.5" width="320" height="15" as="geometry" />
        </mxCell>
        <mxCell id="48O9rbKC2fMTxeMT6MjP-6" value="" style="rounded=0;whiteSpace=wrap;html=1;strokeColor=default;" vertex="1" parent="1">
          <mxGeometry x="120" y="340" width="240" height="60" as="geometry" />
        </mxCell>
        <mxCell id="48O9rbKC2fMTxeMT6MjP-9" value="Request" style="text;html=1;strokeColor=default;fillColor=none;align=center;verticalAlign=middle;whiteSpace=wrap;rounded=0;fontSize=12;dashed=1;" vertex="1" parent="1">
          <mxGeometry x="145" y="230" width="55" height="20" as="geometry" />
        </mxCell>
      </root>
    </mxGraphModel>
  </diagram>
</mxfile>
